<svg width="455" height="164" viewBox="0 0 455 194" fill="none" xmlns="http://www.w3.org/2000/svg">
<path fill-rule="evenodd" clip-rule="evenodd" d="M308.645 119.685C310.849 112.238 312.032 104.354 312.032 96.1928C312.032 90.0738 311.367 84.1102 310.105 78.3702H318.018V119.685H308.645ZM306.27 126.571C305.02 129.731 303.581 132.796 301.967 135.752H370.528L384.321 121.885C384.915 118.039 388.224 115.094 392.216 115.094C396.63 115.094 400.207 118.691 400.207 123.128C400.207 127.565 396.63 131.161 392.216 131.161C390.594 131.161 389.084 130.675 387.824 129.84L375.094 142.638L297.756 142.637C282.884 164.488 257.811 178.837 229.387 178.837C200.913 178.837 175.802 164.437 160.939 142.522H80.4978V142.471L80.46 142.528L67.6418 129.71C66.3726 130.547 64.8523 131.034 63.2183 131.034C58.7746 131.034 55.1723 127.432 55.1723 122.988C55.1723 118.544 58.7746 114.942 63.2183 114.942C67.2383 114.942 70.5697 117.89 71.1684 121.742L85.0577 135.632L84.9475 135.797H156.832C155.185 132.786 153.719 129.66 152.451 126.436H131.034V71.264H150.568C151.545 68.1729 152.699 65.1603 154.017 62.2381H130.865L114.942 78.1605L114.942 78.1594V78.1605H88.8807C87.5894 80.8789 84.8187 82.7582 81.609 82.7582C77.1654 82.7582 73.5631 79.1559 73.5631 74.7123C73.5631 70.2686 77.1654 66.6664 81.609 66.6664C84.8187 66.6664 87.5893 68.5457 88.8807 71.264L110.345 71.264L126.314 55.2943V55.0924H157.671C171.928 30.2675 198.705 13.5481 229.387 13.5481C260.202 13.5481 287.079 30.4137 301.289 55.4177H329.434L329.434 55.4179L345.415 71.4845L345.415 71.4848H366.73C368.013 68.7705 370.764 66.8939 373.952 66.8939C378.365 66.8939 381.943 70.4906 381.943 74.9273C381.943 79.364 378.365 82.9607 373.952 82.9607C370.765 82.9607 368.013 81.0844 366.731 78.3705H340.849V78.3703L324.868 62.3035L304.786 62.3035C306.124 65.2747 307.291 68.3393 308.275 71.4847H324.867V126.571H306.27ZM137.931 78.1606H148.715C147.423 83.9649 146.742 89.9993 146.742 96.1928C146.742 104.301 147.91 112.136 150.086 119.54H137.931V78.1606ZM81.609 71.264C83.4923 71.264 85.0229 72.7738 85.0567 74.6489V74.7757C85.0229 76.6509 83.4923 78.1606 81.609 78.1606C79.7046 78.1606 78.1608 76.6167 78.1608 74.7123C78.1608 72.8079 79.7046 71.264 81.609 71.264ZM66.6665 122.988C66.6665 124.893 65.1226 126.436 63.2182 126.436C61.3138 126.436 59.77 124.893 59.77 122.988C59.77 121.084 61.3138 119.54 63.2182 119.54C65.1226 119.54 66.6665 121.084 66.6665 122.988ZM73.5624 58.6204C73.5624 63.064 69.9601 66.6663 65.5165 66.6663C61.0728 66.6663 57.4705 63.064 57.4705 58.6204C57.4705 54.1767 61.0728 50.5744 65.5165 50.5744C69.9601 50.5744 73.5624 54.1767 73.5624 58.6204ZM68.9648 58.6204C68.9648 60.5248 67.4209 62.0686 65.5165 62.0686C63.6121 62.0686 62.0682 60.5248 62.0682 58.6204C62.0682 56.716 63.6121 55.1721 65.5165 55.1721C67.4209 55.1721 68.9648 56.716 68.9648 58.6204ZM56.3221 78.1607L91.6837 110.344L91.9539 109.982V110.344H126.436V103.448H96.1544L60.9198 71.2641L56.3221 78.1607ZM15.3176 87.356H59.7699L66.6664 94.2525H15.3176C14.0263 96.9708 11.2556 98.8502 8.04595 98.8502C3.60229 98.8502 0 95.2479 0 90.8042C0 86.3606 3.60229 82.7583 8.04595 82.7583C11.2556 82.7583 14.0263 84.6376 15.3176 87.356ZM11.4943 90.8042C11.4943 92.7087 9.95043 94.2525 8.04601 94.2525C6.14158 94.2525 4.59774 92.7087 4.59774 90.8042C4.59774 88.8998 6.14158 87.356 8.04601 87.356C9.95043 87.356 11.4943 88.8998 11.4943 90.8042ZM126.436 94.2525H91.9533L85.0568 87.356H126.436V94.2525ZM126.437 119.54H75.8626L82.7591 126.436H126.437V119.54ZM49.7997 71.264H60.9187L56.3211 78.1606H49.7996C48.5083 80.8789 45.7376 82.7582 42.528 82.7582C38.0843 82.7582 34.482 79.1559 34.482 74.7123C34.482 70.2686 38.0843 66.6664 42.528 66.6664C45.7376 66.6664 48.5083 68.5457 49.7997 71.264ZM45.9762 74.7123C45.9762 76.6167 44.4324 78.1606 42.5279 78.1606C40.6235 78.1606 39.0797 76.6167 39.0797 74.7123C39.0797 72.8079 40.6235 71.264 42.5279 71.264C44.4324 71.264 45.9762 72.8079 45.9762 74.7123ZM73.5631 55.1721H119.54L112.643 62.0686H73.5631V55.1721ZM38.3061 103.448H78.1607L85.0572 110.344H38.3061C37.0147 113.063 34.244 114.942 31.0344 114.942C26.5908 114.942 22.9885 111.34 22.9885 106.896C22.9885 102.452 26.5908 98.8502 31.0344 98.8502C34.2441 98.8502 37.0147 100.73 38.3061 103.448ZM34.4826 106.896C34.4826 108.801 32.9388 110.344 31.0344 110.344C29.1299 110.344 27.5861 108.801 27.5861 106.896C27.5861 104.992 29.1299 103.448 31.0344 103.448C32.9388 103.448 34.4826 104.992 34.4826 106.896ZM298.432 96.6919C298.432 134.271 267.434 164.734 229.196 164.734C190.958 164.734 159.96 134.271 159.96 96.6919C159.96 59.1131 190.958 28.6494 229.196 28.6494C267.434 28.6494 298.432 59.1131 298.432 96.6919ZM389.934 66.8939C385.521 66.8939 381.943 63.2972 381.943 58.8605C381.943 54.4238 385.521 50.8271 389.934 50.8271C394.347 50.8271 397.925 54.4238 397.925 58.8605C397.925 63.2972 394.347 66.8939 389.934 66.8939ZM389.934 62.3034C388.042 62.3034 386.509 60.762 386.509 58.8605C386.509 56.9591 388.042 55.4177 389.934 55.4177C391.825 55.4177 393.358 56.9591 393.358 58.8605C393.358 60.762 391.825 62.3034 389.934 62.3034ZM370.528 74.9171C370.534 73.0204 372.065 71.4846 373.953 71.4846C375.844 71.4846 377.377 73.0261 377.377 74.9275C377.377 76.829 375.844 78.3704 373.953 78.3704C372.065 78.3704 370.534 76.8346 370.528 74.9379V74.9171ZM405.543 71.4847H394.5H394.5L359.507 103.618H329.433V110.504H363.679V110.141L363.947 110.504L399.066 78.3704H405.543C406.825 81.0844 409.577 82.9607 412.764 82.9607C417.178 82.9607 420.755 79.364 420.755 74.9273C420.755 70.4906 417.178 66.8939 412.764 66.8939C409.577 66.8939 406.825 68.7705 405.543 71.4847ZM395.641 87.5515H439.788C441.07 84.8373 443.822 82.9609 447.009 82.9609C451.422 82.9609 455 86.5575 455 90.9942C455 95.431 451.422 99.0276 447.009 99.0276C443.822 99.0276 441.07 97.1513 439.788 94.4372H388.792L395.641 87.5515ZM329.433 94.4371H363.679L370.528 87.5513H329.433V94.4371ZM379.659 119.685H329.433V126.571H372.81L379.659 119.685ZM336.282 55.4177H381.943V62.3035H343.131L336.282 55.4177ZM416.957 103.618H377.377L370.528 110.504H416.957C418.24 113.218 420.991 115.094 424.179 115.094C428.592 115.094 432.17 111.498 432.17 107.061C432.17 102.624 428.592 99.0276 424.179 99.0276C420.991 99.0276 418.24 100.904 416.957 103.618ZM409.339 74.9275C409.339 76.829 410.873 78.3704 412.764 78.3704C414.655 78.3704 416.189 76.829 416.189 74.9275C416.189 73.0261 414.655 71.4846 412.764 71.4846C410.873 71.4846 409.339 73.0261 409.339 74.9275ZM447.009 94.4372C445.118 94.4372 443.585 92.8958 443.585 90.9943C443.585 89.0929 445.118 87.5515 447.009 87.5515C448.901 87.5515 450.434 89.0929 450.434 90.9943C450.434 92.8958 448.901 94.4372 447.009 94.4372ZM420.755 107.061C420.755 108.962 422.288 110.504 424.179 110.504C426.07 110.504 427.604 108.962 427.604 107.061C427.604 105.16 426.07 103.618 424.179 103.618C422.288 103.618 420.755 105.16 420.755 107.061ZM392.217 126.571C390.325 126.571 388.792 125.029 388.792 123.128C388.792 121.226 390.325 119.685 392.217 119.685C394.108 119.685 395.641 121.226 395.641 123.128C395.641 125.029 394.108 126.571 392.217 126.571Z" fill="url(#paint0_radial_894_1661)"/>
<path d="M293.901 100.317C291.988 133.778 263.752 160.333 229.201 160.333C193.411 160.333 164.398 131.84 164.398 96.6919C164.398 61.5439 193.411 33.0508 229.201 33.0508C261.645 33.0508 288.52 56.4646 293.262 87.0249H292.055C287.324 57.1142 260.984 34.2221 229.201 34.2221C194.07 34.2221 165.59 62.1908 165.59 96.6919C165.59 131.193 194.07 159.162 229.201 159.162C263.093 159.162 290.795 133.131 292.707 100.317H293.901Z" fill="#C5D82E"/>
<path d="M272.478 54.8894C281.076 63.4737 287.047 74.6047 289.109 87.0249H287.977C285.926 74.9133 280.089 64.0592 271.699 55.6762C271.311 55.7973 270.869 55.7184 270.545 55.4309L267.213 52.4756C266.88 52.1798 266.757 51.74 266.856 51.339C256.592 43.1108 243.483 38.1759 229.201 38.1759C228.927 38.1759 228.653 38.1777 228.38 38.1814V39.0982C228.379 39.0982 228.38 39.0982 228.38 39.0982L228.381 40.0997L228.44 40.1577C228.42 40.1579 228.4 40.1582 228.38 40.1585V41.1124C228.653 41.1086 228.927 41.1067 229.201 41.1067L229.201 42.1297C228.927 42.1297 228.653 42.1317 228.38 42.1356V43.1266C228.653 43.1226 228.927 43.1206 229.201 43.1206L229.201 44.1066C228.927 44.1066 228.653 44.1086 228.38 44.1127V44.3314H227.816C228.367 44.3504 228.838 44.6734 229.062 45.1347C229.108 45.1346 229.155 45.1346 229.201 45.1346V46.3429C229.201 46.3429 229.201 46.3429 229.201 46.3429L229.201 47.1485C229.201 47.1485 229.201 47.1485 229.201 47.1485L229.201 48.3097C229.201 48.3097 229.201 48.3097 229.201 48.3097L229.201 49.1625C229.201 49.1625 229.201 49.1625 229.201 49.1625L229.201 50.2765C229.201 50.2765 229.201 50.2765 229.201 50.2765L229.201 51.1764C229.201 51.1764 229.201 51.1764 229.201 51.1764L229.201 52.2432C229.201 52.2432 229.201 52.2432 229.201 52.2432L229.201 52.5891C229.201 53.3679 228.558 53.9992 227.765 53.9992C226.972 53.9992 226.329 53.3679 226.329 52.5891V45.7405C226.329 44.9786 226.945 44.3579 227.714 44.3314H227.149V44.1445C226.944 44.1521 226.74 44.1608 226.535 44.1706V43.1835C226.74 43.1738 226.944 43.1653 227.149 43.1578V42.1662C226.944 42.1735 226.74 42.1819 226.535 42.1914V41.1672C226.74 41.1579 226.944 41.1497 227.149 41.1425V40.1881C227.126 40.1888 227.104 40.1896 227.081 40.1904L227.149 40.1013V38.21C195.191 39.2721 169.616 65.0489 169.616 96.6919C169.616 127.656 194.105 153.002 225.1 155.071V155.097H225.497C225.774 155.113 226.051 155.128 226.329 155.141V149.054H226.895C226.125 149.028 225.51 148.407 225.51 147.645V140.797C225.51 140.018 226.153 139.387 226.945 139.387C227.738 139.387 228.381 140.018 228.381 140.797V147.645C228.381 148.407 227.766 149.028 226.996 149.054H227.56V149.253C227.56 149.253 227.56 149.253 227.56 149.253L227.561 150.239C227.56 150.239 227.561 150.239 227.561 150.239L227.56 151.231C227.56 151.231 227.56 151.231 227.56 151.231L227.561 152.254C227.56 152.254 227.561 152.254 227.561 152.254L227.56 153.209C227.56 153.209 227.56 153.209 227.56 153.209L227.561 154.269C227.56 154.269 227.561 154.269 227.561 154.269L227.56 155.186C228.105 155.201 228.652 155.208 229.201 155.208C260.869 155.208 286.767 130.946 288.673 100.317H289.793C287.885 131.552 261.486 156.305 229.201 156.305C228.652 156.305 228.105 156.298 227.56 156.284V156.306H226.329V156.24C194.138 154.767 168.499 128.67 168.499 96.6919C168.499 64.4428 194.574 38.1748 227.149 37.1122V37.08H228.38V37.0841C228.653 37.0805 228.927 37.0787 229.201 37.0787C243.769 37.0787 257.138 42.1185 267.6 50.5195C267.999 50.3764 268.464 50.4497 268.801 50.7489L272.133 53.7042C272.48 54.0121 272.599 54.4758 272.478 54.8894Z" fill="#C5D82E"/>
<path d="M225.1 151.108V152.133C225.1 152.133 225.1 152.133 225.1 152.133L225.099 153.09C225.099 153.09 225.099 153.09 225.099 153.09L225.1 154.152C194.621 152.085 170.55 127.149 170.55 96.6919C170.55 65.9621 195.054 40.8528 225.92 39.1813V40.2431C195.651 41.9133 171.629 66.5477 171.629 96.6919C171.629 126.289 194.787 150.575 224.279 153.027V152.07C195.324 149.62 172.601 125.762 172.601 96.6919C172.601 69.9995 191.759 47.7014 217.308 42.3359V42.3161H217.402C218.721 42.0415 220.057 41.8119 221.408 41.6292L221.41 46.3447H217.308V45.4083C216.336 45.6249 215.373 45.8674 214.422 46.1352L212.385 46.5443V46.7521C191.05 53.6769 175.655 73.4188 175.655 96.6919C175.655 119.666 190.657 139.199 211.565 146.358V146.839L220.588 148.652L225.1 149.458V150.114C196.888 148.055 174.651 124.924 174.651 96.6919C174.651 71.1168 192.9 49.7276 217.308 44.3976V43.3827C192.338 48.7305 173.642 70.567 173.642 96.6919C173.642 125.471 196.33 149.046 225.1 151.108Z" fill="#C5D82E"/>
<path d="M211.565 145.268C191.246 138.152 176.702 119.09 176.702 96.6919C176.702 73.9934 191.638 54.7209 212.385 47.8362V49.1138C212.384 49.1142 212.383 49.1145 212.382 49.1148V49.9686C212.383 49.9683 212.384 49.968 212.385 49.9676V51.2014C196.323 56.9291 184.155 70.6273 180.837 87.4277H181.722C185.007 71.1014 196.805 57.7799 212.385 52.11V53.3003C212.384 53.3007 212.383 53.301 212.382 53.3013V54.266C212.383 54.2657 212.384 54.2653 212.385 54.265V55.4122C199.972 60.2936 190.273 70.4182 186.13 82.997H198.85C198.85 82.5521 199.217 82.1914 199.67 82.1914H207.873C208.326 82.1914 208.694 82.5521 208.694 82.997H215.256V84.2054H208.694C208.694 84.6503 208.326 85.0109 207.873 85.0109H199.67C199.217 85.0109 198.85 84.6503 198.85 84.2054H184.62C188.518 70.7588 198.553 59.851 211.562 54.5889V53.6169C197.02 59.3656 186.059 72.0104 182.879 87.4277H198.85C198.85 86.9828 199.217 86.6221 199.67 86.6221H207.873C208.326 86.6221 208.694 86.9828 208.694 87.4277H215.256V88.6361H208.694C208.694 89.081 208.326 89.4417 207.873 89.4417H199.67C199.217 89.4417 198.85 89.081 198.85 88.6361H179.416C182.365 70.9299 194.87 56.3796 211.562 50.2614V49.4022C193.41 55.9341 180.067 72.2578 178.166 91.8584H198.85C198.85 91.4135 199.217 91.0528 199.67 91.0528H207.873C208.326 91.0528 208.694 91.4135 208.694 91.8584H215.256V93.0668H208.694C208.694 93.5117 208.326 93.8724 207.873 93.8724H199.67C199.217 93.8724 198.85 93.5117 198.85 93.0668H178.063C177.977 94.2641 177.932 95.4729 177.932 96.6919C177.932 118.109 191.55 136.403 210.745 143.68V142.815C192.012 135.58 178.753 117.657 178.753 96.6919C178.753 96.5575 178.753 96.4232 178.754 96.2891H198.85C198.85 95.8442 199.217 95.4835 199.67 95.4835H207.873C208.326 95.4835 208.694 95.8442 208.694 96.2891H215.256V97.4975H208.694C208.694 97.9424 208.326 98.3031 207.873 98.3031H199.67C199.217 98.3031 198.85 97.9424 198.85 97.4975H181.945C182.272 116.355 194.05 132.474 210.745 139.435V138.456C194.925 131.703 183.689 116.535 182.899 98.7059H183.986C184.782 116.242 195.925 131.135 211.565 137.64L211.566 140.195L211.565 140.967C193.797 134.136 181.145 117.288 180.81 97.4975H179.942C180.279 117.767 193.308 135.006 211.565 141.882V145.268Z" fill="#C5D82E"/>
<path d="M242.736 139.119C258.064 134.408 269.886 121.906 273.393 106.336L275.085 103.153C272.575 120.496 260.111 134.692 243.555 139.982V140.928C260.626 135.591 273.488 120.987 276.012 103.137H277.158C274.569 121.89 260.843 137.168 242.736 142.338V139.119Z" fill="#C5D82E"/>
<path d="M274.955 85.0109H276.126C271.996 68.9603 259.552 56.1603 243.556 51.2881L243.556 53.9971L243.556 54.5254C256.723 58.8467 267.195 68.9494 271.846 81.7651L273.781 84.2005C269.639 69.9189 258.574 58.5017 244.376 53.6722V52.7206C259.349 57.7025 270.954 69.8528 274.955 85.0109Z" fill="#C5D82E"/>
<path d="M223.049 48.7597H214.846V63.4231H208.226V75.5551H244.226V102.976C244.226 113.431 238.728 121.617 226.944 121.617C215.26 121.617 209.564 115.601 209.564 103.765H196.799C196.799 118.055 203.529 127.539 214.026 131.6V145.027H222.229V133.582C223.754 133.759 225.328 133.848 226.944 133.848C228.428 133.848 229.864 133.768 231.252 133.613V145.027H240.275V131.281C251.067 126.644 257.188 116.119 257.188 102.976V63.4231H241.095V48.7597H232.072V63.4231H223.049V48.7597Z" fill="#C5D82E"/>
<path d="M236.174 82.1914H217.717V101.117C217.45 101.947 217.307 102.828 217.307 103.741C217.307 108.746 221.622 112.804 226.945 112.804C232.268 112.804 236.584 108.746 236.584 103.741C236.584 102.828 236.44 101.947 236.174 101.117V82.1914Z" fill="#C5D82E"/>
<path fill-rule="evenodd" clip-rule="evenodd" d="M229.201 162.347C265.713 162.347 295.388 133.603 296.044 97.9003H293.993C294.001 97.4984 294.005 97.0956 294.005 96.6919C294.005 96.2882 294.001 95.8854 293.993 95.4835H289.493V94.2751H291.907C291.875 93.4655 291.827 92.6598 291.764 91.8584H293.821C293.759 91.0485 293.681 90.2428 293.589 89.4417H295.652C291.978 56.5929 263.629 31.0369 229.201 31.0369C192.278 31.0369 162.347 60.4316 162.347 96.6919C162.347 132.952 192.278 162.347 229.201 162.347ZM292.8 97.9003C292.808 97.4984 292.812 97.0956 292.812 96.6919H289.493V97.9003H292.8ZM238.319 157.673C235.342 158.099 232.298 158.319 229.201 158.319C194.544 158.319 166.448 130.728 166.448 96.6919C166.448 91.0156 167.23 85.5186 168.693 80.2989C168.378 80.107 168.225 79.7218 168.347 79.361L169.988 74.4975C170.112 74.1289 170.481 73.9076 170.859 73.9503C180.074 51.1702 202.722 35.0648 229.201 35.0648C260.937 35.0648 287.17 58.1998 291.368 88.2333H294.265C290.047 56.6377 262.525 32.2452 229.201 32.2452C192.958 32.2452 163.577 61.099 163.577 96.6919C163.577 132.285 192.958 161.139 229.201 161.139C264.62 161.139 293.486 133.582 294.78 99.1086H291.907C290.819 126.809 271.114 149.82 244.732 156.417C244.603 156.806 244.268 157.116 243.83 157.199L239.421 158.034C239 158.114 238.588 157.964 238.319 157.673ZM238.06 156.564C235.167 156.973 232.209 157.185 229.201 157.185C195.182 157.185 167.603 130.101 167.603 96.6919C167.603 91.1361 168.366 85.7552 169.794 80.6448C170.147 80.6545 170.479 80.4384 170.595 80.0926L172.236 75.2292C172.35 74.8913 172.224 74.532 171.949 74.3301C181.004 51.9898 203.225 36.199 229.201 36.199C260.298 36.199 286.012 58.8283 290.202 88.2333H287.224C283.078 60.5613 258.893 39.291 229.611 39.0941V40.1542C258.296 40.3508 281.996 61.149 286.133 88.2333H283.341V87.4277C283.341 87.0784 283.114 86.781 282.798 86.6693C278.571 64.7334 260.726 47.5275 238.222 43.8497V42.8453C261.405 46.5627 279.766 64.3712 283.891 87.0249H284.949C280.567 62.4848 259.794 43.4855 234.123 41.3139V41.9137H234.12V45.9423H238.222V44.8497C260.154 48.5038 277.547 65.2545 281.766 86.6221H280.699C276.862 67.588 262.356 52.3224 243.556 47.0857L243.556 49.5666L243.556 50.3958C260.033 55.3167 272.851 68.4881 277.022 85.0109H278.239C274.082 68.1198 261.112 54.6065 244.376 49.4291V48.585C262.095 53.9695 275.706 68.5355 279.444 86.6221H278.829C278.376 86.6221 278.009 86.9828 278.009 87.4277V88.2333H275.958L268.575 80.1774H264.474V78.9691H260.372V82.997H264.474V81.3858H268.575L275.958 89.4417H278.009V90.65H275.548L271.036 86.2193H264.474V85.0109H260.372V89.0389H264.474V87.4277H271.036L275.548 91.8584H278.009V93.0668H264.474V91.8584H260.372V95.8863H264.474V94.2751H278.009V95.4835H275.548L271.036 99.9142H264.474V98.7059H260.372V102.734H264.474V101.123H271.036L275.548 96.6919H278.009V97.9003H275.958L271.036 105.956H264.474V104.345H260.372V108.373H264.474V107.164H271.036L275.958 99.1086H278.009V100.72C278.009 101.165 278.376 101.525 278.829 101.525H280.237C278.223 122.291 263.366 139.378 243.555 145.041V144.201C262.395 138.72 276.636 122.724 279.227 103.137H278.034C275.428 122.363 261.325 138.021 242.736 143.225L242.735 145.833L242.736 146.52C263.639 141.057 279.416 123.246 281.473 101.525H282.524C280.057 128.104 257.453 148.966 229.82 149.274L228.791 149.458V150.262L229.056 150.263L229.201 150.263C258.503 150.263 282.41 127.574 283.696 99.1086H284.271C284.413 99.3494 284.678 99.5114 284.981 99.5114H286.703C285.213 129.294 260.258 153.019 229.612 153.23V152.276C259.444 152.068 283.79 129.194 285.683 100.317H284.639C282.739 128.761 258.645 151.254 229.201 151.254C229.064 151.254 228.928 151.254 228.791 151.253V152.276C228.791 152.276 228.791 152.276 228.791 152.276V154.29C228.928 154.291 229.064 154.291 229.201 154.291C260.631 154.291 286.286 130.013 287.783 99.5114H288.673C288.976 99.5114 289.241 99.3494 289.383 99.1086H290.751C289.665 126.258 270.359 148.811 244.507 155.302C244.239 154.994 243.815 154.833 243.381 154.915L238.973 155.75C238.523 155.835 238.182 156.16 238.06 156.564ZM284.161 97.9003V96.6919H283.341V97.9003H284.161ZM284.161 95.4835H283.737C283.728 95.0796 283.715 94.6768 283.696 94.2751H284.161V95.4835ZM284.271 93.0668H283.628C283.601 92.6627 283.568 92.2599 283.532 91.8584H290.723V93.0668H289.383C289.241 92.826 288.976 92.664 288.673 92.664H284.981C284.678 92.664 284.413 92.826 284.271 93.0668ZM292.518 90.65C292.479 90.2461 292.435 89.8433 292.388 89.4417H283.341V90.65H292.518Z" fill="#C5D82E"/>
<path fill-rule="evenodd" clip-rule="evenodd" d="M310.531 149.425C293.282 175.73 263.535 193.103 229.73 193.103C195.925 193.103 166.178 175.73 148.93 149.425H157.318C173.627 171.723 199.987 186.206 229.729 186.206C259.472 186.206 285.832 171.723 302.141 149.425H310.531ZM313.365 48.2758C296.671 19.4165 265.468 0 229.73 0C193.993 0 162.79 19.4165 146.096 48.2758H154.168C170.1 23.3908 197.989 6.89634 229.729 6.89634C261.47 6.89634 289.358 23.3908 305.29 48.2758H313.365Z" fill="url(#paint1_linear_894_1661)"/>
<path d="M227.693 169.456L227.165 169.437C227.101 169.435 227.067 169.465 227.065 169.528L226.922 173.612L225.206 173.552L225.368 168.929C225.377 168.679 225.475 168.468 225.661 168.298C225.848 168.124 226.188 168.046 226.682 168.064L227.74 168.1L227.693 169.456Z" fill="#012426"/>
<path d="M207.74 164.861L206.211 170.183L207.861 170.655L208.546 168.272L208.673 170.887L210.252 171.339L211.782 166.017L210.131 165.545L209.448 167.923L209.32 165.313L207.74 164.861Z" fill="#012426"/>
<path fill-rule="evenodd" clip-rule="evenodd" d="M197.384 160.623C197.23 160.591 197.051 160.613 196.846 160.69C196.439 160.841 196.11 161.186 195.859 161.723L194.903 163.768C194.652 164.305 194.599 164.779 194.744 165.187C194.817 165.392 194.916 165.544 195.039 165.641L197.887 166.966L200.232 161.948L197.384 160.623ZM197.65 161.945C197.676 161.89 197.715 161.876 197.771 161.901L198.255 162.126L196.753 165.34L196.269 165.115C196.214 165.089 196.199 165.049 196.225 164.994L197.65 161.945Z" fill="#012426"/>
<path d="M193.285 164.783L190.604 163.239L191.103 162.377L192.296 163.064L192.877 162.061L191.684 161.374L192.175 160.524L193.368 161.212L194.073 159.993L192.88 159.306L193.379 158.444L196.059 159.988L193.285 164.783Z" fill="#012426"/>
<path d="M187.585 161.392C187.171 161.123 186.936 160.865 186.884 160.616C186.831 160.371 186.875 160.141 187.014 159.927L187.654 158.943L189.094 159.876L188.548 160.716C188.513 160.769 188.521 160.812 188.573 160.845L188.944 161.085C188.995 161.119 189.037 161.109 189.072 161.056L190.908 158.234C190.94 158.185 190.931 158.145 190.879 158.112L190.508 157.871C190.457 157.838 190.416 157.846 190.384 157.895L189.833 158.742L188.393 157.809L189.038 156.817C189.174 156.608 189.365 156.476 189.611 156.425C189.861 156.371 190.193 156.48 190.607 156.748L191.864 157.563C192.28 157.833 192.515 158.091 192.564 158.339C192.62 158.585 192.512 158.916 192.243 159.329L190.617 161.827C190.345 162.244 190.085 162.479 189.837 162.529C189.59 162.584 189.258 162.476 188.842 162.206L187.585 161.392Z" fill="#012426"/>
<path d="M185.801 160.264L183.297 158.449L183.883 157.644L184.998 158.452L185.68 157.515L184.565 156.707L185.143 155.913L186.258 156.722L187.087 155.583L185.972 154.775L186.558 153.97L189.062 155.785L185.801 160.264Z" fill="#012426"/>
<path d="M182.9 151.044L179.408 155.347L180.742 156.425L182.305 154.499L181.398 156.955L182.676 157.987L186.167 153.684L184.833 152.606L183.272 154.529L184.177 152.076L182.9 151.044Z" fill="#012426"/>
<path d="M178.694 154.914L175.73 152.058L176.423 151.342L177.288 152.175L180.449 148.908L181.684 150.099L178.523 153.365L179.387 154.198L178.694 154.914Z" fill="#012426"/>
<path fill-rule="evenodd" clip-rule="evenodd" d="M173.282 149.582C172.945 149.222 172.78 148.914 172.79 148.66C172.8 148.408 172.987 148.112 173.35 147.775L173.468 147.665C173.785 147.37 174.037 147.209 174.224 147.181C174.406 147.155 174.665 147.271 175.001 147.53C174.766 147.177 174.67 146.909 174.711 146.729C174.751 146.544 174.841 146.387 174.98 146.258L175.835 145.462C176.124 145.194 176.315 144.975 176.406 144.807L177.577 146.06C177.471 146.242 177.267 146.473 176.966 146.753L176.106 147.554C176.077 147.58 176.071 147.613 176.084 147.653L176.471 148.066L178.065 146.582L179.236 147.835L175.178 151.611L173.282 149.582ZM174.38 149.159C174.334 149.202 174.331 149.245 174.373 149.29L174.737 149.68L175.789 148.7L175.425 148.311C175.384 148.266 175.34 148.266 175.297 148.306L174.38 149.159Z" fill="#012426"/>
<path fill-rule="evenodd" clip-rule="evenodd" d="M171.113 147.208L176.193 144.635L175.166 143.414L174.004 144.074L173.351 143.298L174.201 142.266L173.178 141.049L169.756 145.594L171.113 147.208ZM173.132 144.574L171.573 145.448L172.707 144.069L173.132 144.574Z" fill="#012426"/>
<path d="M168.594 144.212L167.537 142.862L170.838 140.288L169.99 139.205L171.061 138.37L172.966 140.804L168.594 144.212Z" fill="#012426"/>
<path d="M166.298 141.209L165.313 139.806L169.859 136.63L170.844 138.034L166.298 141.209Z" fill="#012426"/>
<path d="M164.901 139.233L166.059 138.511L165.227 137.183L169.654 136.374L167.623 133.132L166.471 133.85L167.223 135.052L162.854 135.963L164.901 139.233Z" fill="#012426"/>
<path d="M162.501 135.478L161 132.777L161.873 132.295L162.541 133.497L163.556 132.936L162.888 131.733L163.748 131.258L164.415 132.46L165.649 131.778L164.981 130.576L165.853 130.093L167.354 132.794L162.501 135.478Z" fill="#012426"/>
<path fill-rule="evenodd" clip-rule="evenodd" d="M164.229 126.786C164.127 126.666 163.972 126.573 163.764 126.508C163.35 126.377 162.878 126.447 162.349 126.716L160.334 127.74C159.805 128.009 159.47 128.35 159.333 128.76C159.264 128.967 159.248 129.147 159.285 129.3L160.712 132.093L165.656 129.58L164.229 126.786ZM163.623 127.991C163.677 127.963 163.718 127.976 163.745 128.031L163.987 128.505L160.821 130.115L160.579 129.641C160.551 129.586 160.564 129.546 160.619 129.518L163.623 127.991Z" fill="#012426"/>
<path fill-rule="evenodd" clip-rule="evenodd" d="M161.744 120.819C161.655 120.689 161.51 120.581 161.31 120.494C160.912 120.321 160.435 120.341 159.881 120.553L157.769 121.362C157.215 121.574 156.847 121.878 156.667 122.271C156.577 122.47 156.542 122.647 156.563 122.803L157.69 125.73L162.87 123.746L161.744 120.819ZM161.014 121.954C161.071 121.932 161.11 121.949 161.132 122.006L161.323 122.503L158.006 123.774L157.814 123.277C157.792 123.22 157.81 123.182 157.867 123.16L161.014 121.954Z" fill="#012426"/>
<path d="M156.04 121.198L155.51 119.568L160.787 117.857L161.317 119.487L156.04 121.198Z" fill="#012426"/>
<path d="M154.486 116.146C154.358 115.67 154.358 115.321 154.486 115.101C154.613 114.883 154.918 114.71 155.397 114.582L156.224 114.361L156.668 116.016L155.668 116.283C155.608 116.299 155.584 116.336 155.6 116.395L155.715 116.822C155.731 116.881 155.77 116.901 155.83 116.885L159.088 116.014C159.143 115.999 159.165 115.963 159.149 115.904L159.034 115.477C159.018 115.418 158.982 115.397 158.926 115.412L157.871 115.694L157.952 115.993L157.352 116.154L156.827 114.2L159.515 113.481L159.644 113.959L159.183 114.256C159.519 114.219 159.77 114.486 159.938 115.055L160.234 116.157C160.362 116.636 160.364 116.984 160.238 117.201C160.111 117.421 159.808 117.595 159.331 117.723L156.448 118.494C155.969 118.622 155.618 118.623 155.397 118.495C155.177 118.371 155.003 118.069 154.874 117.59L154.486 116.146Z" fill="#012426"/>
<path d="M154.052 114.232L153.666 112.562L159.072 111.317L159.459 112.986L154.052 114.232Z" fill="#012426"/>
<path d="M153.492 111.923L152.777 107.874L153.759 107.701L153.968 108.882L158.45 108.094L158.748 109.781L154.266 110.569L154.475 111.75L153.492 111.923Z" fill="#012426"/>
<path fill-rule="evenodd" clip-rule="evenodd" d="M152.566 106.475L158.231 107.078L158.036 105.496L156.701 105.417L156.577 104.412L157.853 104.009L157.659 102.432L152.309 104.383L152.566 106.475ZM155.697 105.363L153.913 105.249L155.616 104.709L155.697 105.363Z" fill="#012426"/>
<path d="M152.133 102.542L152.014 100.833L156.193 100.541L156.097 99.1699L157.453 99.0753L157.669 102.156L152.133 102.542Z" fill="#012426"/>
<path d="M152.01 93.8144C152.027 93.322 152.129 92.9883 152.316 92.8154C152.499 92.6437 152.719 92.563 152.974 92.5719L154.15 92.6128L154.09 94.3252L153.087 94.2902C153.023 94.2881 152.991 94.3167 152.989 94.3778L152.973 94.8191C152.971 94.8801 153.001 94.9109 153.065 94.9131L156.434 95.0305C156.493 95.0326 156.523 95.0038 156.525 94.9428L156.54 94.5015C156.542 94.4404 156.515 94.4097 156.456 94.4077L155.444 94.3724L155.504 92.66L156.688 92.7013C156.938 92.71 157.15 92.8058 157.321 92.9898C157.495 93.1752 157.573 93.5152 157.556 94.0076L157.503 95.5024C157.486 95.9972 157.385 96.3309 157.198 96.5012C157.014 96.6755 156.675 96.7532 156.181 96.7361L153.198 96.632C152.699 96.6146 152.364 96.5134 152.193 96.3269C152.019 96.1441 151.94 95.804 151.958 95.3092L152.01 93.8144Z" fill="#012426"/>
<path d="M152.379 87.7106L156.634 88.0821C157.125 88.125 157.453 88.2422 157.614 88.435C157.779 88.6292 157.838 88.9728 157.795 89.4637L157.665 90.9536C157.621 91.4468 157.503 91.7748 157.307 91.9351C157.115 92.0995 156.772 92.1594 156.28 92.1165L152.025 91.745L152.175 90.0383L156.611 90.4256C156.674 90.4311 156.708 90.4029 156.713 90.3396L156.752 89.9034C156.757 89.8427 156.729 89.8103 156.665 89.8047L152.229 89.4175L152.379 87.7106Z" fill="#012426"/>
<path fill-rule="evenodd" clip-rule="evenodd" d="M152.839 84.1574C152.907 83.6696 153.043 83.3482 153.247 83.1959C153.45 83.0445 153.798 83.0041 154.29 83.073L154.449 83.0954C154.879 83.1557 155.163 83.2496 155.302 83.3772C155.437 83.5017 155.509 83.7757 155.519 84.1991C155.646 83.7949 155.794 83.5517 155.96 83.4695C156.129 83.3852 156.308 83.3562 156.496 83.3824L157.654 83.5449C158.045 83.5996 158.335 83.6103 158.524 83.5753L158.285 85.2717C158.076 85.304 157.768 85.2911 157.361 85.234L156.196 85.0705C156.157 85.0652 156.127 85.081 156.105 85.1168L156.026 85.6761L158.185 85.979L157.946 87.6755L152.452 86.9049L152.839 84.1574ZM153.859 84.7429C153.796 84.7341 153.761 84.7592 153.753 84.8197L153.678 85.347L155.104 85.5468L155.178 85.0195C155.186 84.9591 155.159 84.9252 155.1 84.9169L153.859 84.7429Z" fill="#012426"/>
<path fill-rule="evenodd" clip-rule="evenodd" d="M153.882 79.0207C154.002 78.5426 154.171 78.2372 154.39 78.107C154.607 77.9776 154.958 77.9739 155.439 78.0935L155.595 78.1324C156.016 78.2371 156.289 78.3601 156.414 78.5017C156.535 78.6394 156.578 78.9194 156.543 79.3417C156.713 78.9529 156.885 78.7265 157.059 78.6621C157.236 78.5958 157.417 78.5857 157.601 78.6315L158.736 78.9137C159.118 79.0089 159.406 79.0498 159.598 79.0347L159.182 80.6969C158.972 80.7074 158.667 80.6623 158.267 80.563L157.125 80.2789C157.088 80.2695 157.056 80.2822 157.03 80.3154L156.893 80.8634L159.009 81.3899L158.594 83.0523L153.21 81.7128L153.882 79.0207ZM154.836 79.7094C154.774 79.6941 154.737 79.7154 154.722 79.7746L154.593 80.2913L155.989 80.6387L156.118 80.122C156.133 80.0628 156.11 80.0263 156.052 80.012L154.836 79.7094Z" fill="#012426"/>
<path d="M154.338 76.9747L155.191 74.0064L156.15 74.2808L155.77 75.6022L156.886 75.9216L157.266 74.6L158.211 74.8702L157.831 76.1918L159.186 76.5797L159.566 75.2581L160.525 75.5325L159.672 78.5009L154.338 76.9747Z" fill="#012426"/>
<path d="M162.041 71.1042L156.795 69.3016L156.236 70.9214L158.584 71.7283L155.961 71.7179L155.426 73.2683L160.672 75.0709L161.231 73.4511L158.886 72.6454L161.506 72.6547L162.041 71.1042Z" fill="#012426"/>
<path d="M158.081 65.9499C158.266 65.4932 158.476 65.2142 158.71 65.1155C158.941 65.0167 159.176 65.0159 159.413 65.1115L160.503 65.551L159.86 67.1397L158.929 66.7645C158.87 66.7407 158.83 66.7566 158.807 66.8133L158.641 67.2227C158.618 67.2793 158.636 67.3186 158.695 67.3423L161.821 68.6025C161.876 68.6245 161.913 68.6076 161.936 68.5509L162.102 68.1415C162.125 68.0849 162.109 68.0466 162.055 68.0247L161.117 67.6462L161.76 66.0577L162.858 66.5004C163.09 66.594 163.256 66.7561 163.353 66.9873C163.454 67.221 163.411 67.5673 163.226 68.024L162.664 69.4107C162.478 69.8699 162.268 70.1489 162.034 70.2449C161.802 70.3462 161.457 70.3034 160.999 70.1188L158.231 69.0031C157.769 68.8166 157.488 68.6068 157.391 68.3733C157.29 68.1419 157.333 67.7958 157.519 67.3366L158.081 65.9499Z" fill="#012426"/>
<path d="M162.322 64.2541L158.933 63.9466L159.696 62.5142L161.575 62.884L160.216 61.5387L160.978 60.1073L163.13 62.738L165.259 63.8677L164.451 65.3838L162.322 64.2541Z" fill="#012426"/>
<path d="M219.475 173.015C218.986 172.946 218.664 172.811 218.511 172.607C218.359 172.407 218.302 172.181 218.337 171.928L218.501 170.766L220.201 171.005L220.062 171.996C220.053 172.059 220.078 172.094 220.139 172.103L220.577 172.164C220.638 172.173 220.671 172.146 220.68 172.083L221.149 168.752C221.158 168.694 221.132 168.661 221.071 168.653L220.633 168.591C220.573 168.583 220.539 168.607 220.531 168.665L220.39 169.665L218.69 169.427L218.854 168.256C218.889 168.009 219.007 167.809 219.208 167.659C219.411 167.505 219.758 167.463 220.247 167.532L221.732 167.74C222.223 167.809 222.545 167.945 222.695 168.148C222.85 168.348 222.892 168.693 222.823 169.181L222.407 172.131C222.338 172.623 222.202 172.946 221.998 173.096C221.798 173.25 221.451 173.292 220.959 173.223L219.475 173.015Z" fill="#012426"/>
<path fill-rule="evenodd" clip-rule="evenodd" d="M214.657 172.288C214.172 172.194 213.858 172.041 213.716 171.83C213.575 171.623 213.552 171.274 213.648 170.785L214.217 167.861C214.311 167.378 214.463 167.065 214.671 166.925C214.882 166.782 215.231 166.759 215.716 166.853L217.187 167.138C217.674 167.233 217.989 167.385 218.128 167.596C218.272 167.804 218.296 168.151 218.201 168.634L217.632 171.558C217.537 172.047 217.384 172.362 217.173 172.501C216.964 172.644 216.615 172.668 216.128 172.573L214.657 172.288ZM215.295 171.309C215.284 171.366 215.308 171.4 215.368 171.412L215.802 171.496C215.862 171.508 215.897 171.485 215.908 171.428L216.552 168.125C216.564 168.063 216.54 168.027 216.48 168.015L216.046 167.931C215.986 167.919 215.95 167.944 215.938 168.006L215.295 171.309Z" fill="#012426"/>
<path d="M212.716 171.873L211.043 171.487L212.291 166.092L213.964 166.478L212.716 171.873Z" fill="#012426"/>
<path d="M168.642 55.345L168.953 54.9182C168.99 54.8669 168.984 54.8225 168.932 54.7852L165.619 52.3834L166.628 50.9976L170.379 53.7166C170.582 53.8636 170.702 54.0628 170.74 54.3115C170.78 54.5635 170.654 54.8879 170.363 55.2875L169.741 56.1421L168.642 55.345Z" fill="#012426"/>
<path d="M169.994 46.6303C170.304 46.2474 170.587 46.0419 170.84 46.0161C171.09 45.989 171.315 46.0565 171.513 46.217L172.427 46.9553L171.346 48.2869L170.566 47.6566C170.517 47.6167 170.474 47.6203 170.435 47.6677L170.157 48.0109C170.118 48.0583 170.124 48.1011 170.173 48.141L172.794 50.2582C172.839 50.295 172.88 50.2898 172.919 50.2424L173.197 49.8991C173.236 49.8518 173.232 49.8106 173.187 49.7738L172.4 49.1382L173.48 47.8065L174.401 48.5504C174.596 48.7076 174.707 48.9111 174.732 49.1605C174.76 49.4134 174.617 49.7317 174.306 50.1147L173.363 51.2769C173.05 51.6617 172.768 51.8674 172.516 51.891C172.265 51.9202 171.947 51.7782 171.563 51.4681L169.243 49.5938C168.855 49.2806 168.648 48.998 168.624 48.7465C168.595 48.4959 168.738 48.1775 169.05 47.7925L169.994 46.6303Z" fill="#012426"/>
<path fill-rule="evenodd" clip-rule="evenodd" d="M173.362 42.9351C173.705 42.5806 174.004 42.4004 174.259 42.3968C174.51 42.3914 174.816 42.563 175.175 42.9087L177.322 44.9778C177.677 45.3201 177.858 45.617 177.861 45.8677C177.867 46.1219 177.697 46.4267 177.353 46.7812L176.312 47.857C175.967 48.2131 175.668 48.3935 175.415 48.3951C175.162 48.4023 174.858 48.2333 174.503 47.891L172.355 45.8219C171.996 45.4762 171.815 45.1767 171.813 44.9242C171.806 44.6719 171.976 44.3671 172.321 44.0109L173.362 42.9351ZM173.837 44.0021C173.795 43.9614 173.754 43.963 173.711 44.007L173.404 44.3246C173.361 44.3685 173.361 44.4099 173.403 44.4504L175.829 46.7874C175.875 46.8315 175.918 46.8316 175.96 46.7879L176.268 46.4701C176.31 46.4262 176.308 46.3832 176.263 46.3391L173.837 44.0021Z" fill="#012426"/>
<path d="M174.87 41.4525L176.126 40.2841L179.91 44.3334L178.654 45.5018L174.87 41.4525Z" fill="#012426"/>
<path d="M183.439 41.1729L179.873 36.9315L178.557 38.0328L180.154 39.9312L177.911 38.5742L176.652 39.6283L180.218 43.8696L181.534 42.7683L179.939 40.8726L182.18 42.2269L183.439 41.1729Z" fill="#012426"/>
<path fill-rule="evenodd" clip-rule="evenodd" d="M190.916 35.6675C191.027 35.5558 191.106 35.3936 191.153 35.1805C191.247 34.7581 191.137 34.2945 190.822 33.7923L189.623 31.8784C189.309 31.3761 188.94 31.0737 188.518 30.9727C188.305 30.9219 188.124 30.9218 187.975 30.9722L185.31 32.6337L188.251 37.3291L190.916 35.6675ZM189.66 35.1697C189.692 35.2215 189.683 35.2625 189.631 35.2949L189.178 35.577L187.295 32.57L187.748 32.2878C187.799 32.2554 187.841 32.2652 187.873 32.3168L189.66 35.1697Z" fill="#012426"/>
<path d="M189.464 30.0347L192.171 28.5376L192.655 29.4081L191.449 30.0747L192.012 31.0876L193.217 30.4212L193.694 31.2788L192.489 31.9452L193.172 33.1759L194.377 32.5095L194.861 33.38L192.154 34.8771L189.464 30.0347Z" fill="#012426"/>
<path d="M195.199 26.9007C195.639 26.6769 195.981 26.6038 196.223 26.6833C196.462 26.7598 196.64 26.9126 196.756 27.1398L197.29 28.1852L195.76 28.9631L195.304 28.0708C195.275 28.0141 195.234 28 195.18 28.0276L194.785 28.2282C194.731 28.2558 194.719 28.297 194.747 28.3537L196.278 31.3512C196.305 31.4033 196.344 31.4153 196.399 31.3876L196.793 31.1871C196.848 31.1594 196.861 31.1204 196.835 31.0683L196.375 30.1681L197.905 29.3904L198.443 30.4434C198.557 30.6662 198.575 30.897 198.497 31.1352C198.419 31.3774 198.158 31.6102 197.718 31.8338L196.383 32.5129C195.941 32.7377 195.599 32.811 195.359 32.7302C195.118 32.6549 194.885 32.3962 194.66 31.9572L193.305 29.3033C193.079 28.8597 193.005 28.5176 193.086 28.2783C193.161 28.0374 193.421 27.8045 193.864 27.5797L195.199 26.9007Z" fill="#012426"/>
<path d="M197.111 26.0318L199.938 24.7758L200.344 25.6851L199.085 26.2444L199.557 27.3026L200.816 26.7433L201.216 27.6391L199.957 28.1982L200.53 29.4837L201.789 28.9245L202.195 29.8338L199.368 31.0899L197.111 26.0318Z" fill="#012426"/>
<path d="M206.605 28.1805L204.616 23.0115L203.013 23.6255L203.904 25.9394L202.225 23.9273L200.691 24.5151L202.679 29.6839L204.282 29.07L203.394 26.7596L205.071 28.7681L206.605 28.1805Z" fill="#012426"/>
<path d="M205.528 22.6821L209.508 21.6178L209.766 22.5792L208.605 22.8896L209.783 27.2762L208.125 27.7196L206.947 23.333L205.786 23.6434L205.528 22.6821Z" fill="#012426"/>
<path fill-rule="evenodd" clip-rule="evenodd" d="M212.788 20.8184C213.272 20.7159 213.621 20.7336 213.834 20.8728C214.046 21.011 214.203 21.3237 214.306 21.808L214.34 21.965C214.43 22.3886 214.438 22.687 214.366 22.8613C214.295 23.0303 214.061 23.1917 213.666 23.3455C214.09 23.3267 214.37 23.382 214.504 23.5099C214.641 23.6398 214.73 23.7977 214.769 23.9828L215.012 25.1242C215.094 25.5088 215.184 25.7851 215.281 25.9501L213.602 26.3063C213.5 26.1219 213.407 25.8285 213.321 25.427L213.077 24.2783C213.069 24.2405 213.044 24.2179 213.002 24.2089L212.448 24.3263L212.902 26.4547L211.222 26.8109L210.069 21.3952L212.788 20.8184ZM212.586 21.9756C212.573 21.9134 212.537 21.8894 212.478 21.902L211.956 22.0127L212.255 23.4172L212.777 23.3065C212.837 23.2938 212.859 23.2572 212.847 23.1987L212.586 21.9756Z" fill="#012426"/>
<path fill-rule="evenodd" clip-rule="evenodd" d="M215.9 20.1366L215.594 25.8124L217.167 25.5357L217.175 24.2014L218.175 24.0255L218.645 25.2756L220.214 24.9997L217.98 19.7705L215.9 20.1366ZM217.177 23.1981L217.198 21.414L217.828 23.0835L217.177 23.1981Z" fill="#012426"/>
<path d="M219.824 19.5459L221.529 19.337L222.039 23.4864L223.407 23.3189L223.572 24.6649L220.5 25.0412L219.824 19.5459Z" fill="#012426"/>
<path d="M223.592 19.2329L225.305 19.1132L225.692 24.6365L223.98 24.756L223.592 19.2329Z" fill="#012426"/>
<path d="M226.035 19.0108L226.059 20.3731L227.629 20.3458L226.044 24.5481L229.875 24.4814L229.851 23.1256L228.431 23.1504L229.899 18.9436L226.035 19.0108Z" fill="#012426"/>
<path d="M230.44 19.0185L233.534 19.0724L233.517 20.0676L232.139 20.0435L232.119 21.2016L233.497 21.2257L233.48 22.206L232.102 22.1819L232.077 23.5889L233.455 23.6128L233.438 24.608L230.343 24.5542L230.44 19.0185Z" fill="#012426"/>
<path fill-rule="evenodd" clip-rule="evenodd" d="M237.083 24.8608C237.239 24.8354 237.398 24.7506 237.562 24.6061C237.887 24.3196 238.071 23.8796 238.112 23.2887L238.27 21.0374C238.311 20.4465 238.191 19.9855 237.909 19.6564C237.767 19.4907 237.621 19.3844 237.47 19.3377L234.336 19.1189L233.949 24.6421L237.083 24.8608ZM236.361 23.7216C236.356 23.7824 236.324 23.8101 236.263 23.8059L235.731 23.7686L235.979 20.2313L236.511 20.2686C236.572 20.2728 236.6 20.3047 236.596 20.3655L236.361 23.7216Z" fill="#012426"/>
<path fill-rule="evenodd" clip-rule="evenodd" d="M243.432 25.885C243.589 25.8761 243.757 25.8083 243.935 25.6815C244.288 25.4305 244.517 25.012 244.62 24.429L245.012 22.2063C245.115 21.6229 245.044 21.152 244.798 20.7953C244.674 20.6156 244.54 20.4947 244.395 20.4325L241.301 19.888L240.337 25.3405L243.432 25.885ZM242.832 24.6766C242.822 24.7366 242.787 24.7609 242.727 24.7503L242.201 24.6578L242.818 21.1658L243.344 21.2583C243.404 21.2688 243.428 21.3035 243.418 21.3634L242.832 24.6766Z" fill="#012426"/>
<path d="M245.984 20.7548L247.664 21.111L246.51 26.5267L244.831 26.1705L245.984 20.7548Z" fill="#012426"/>
<path d="M251.103 22.0013C251.58 22.129 251.883 22.3028 252.01 22.5234C252.135 22.7425 252.133 23.0923 252.005 23.5705L251.783 24.395L250.125 23.9514L250.393 22.9541C250.409 22.894 250.388 22.8549 250.329 22.8391L249.902 22.7249C249.843 22.7091 249.805 22.7327 249.789 22.7928L248.916 26.0436C248.901 26.0987 248.923 26.1354 248.982 26.1511L249.409 26.2654C249.468 26.2814 249.505 26.26 249.52 26.2049L249.802 25.152L249.502 25.0719L249.663 24.4734L251.622 24.9971L250.901 27.6795L250.422 27.5512L250.395 27.0043C250.259 27.3132 249.902 27.3967 249.324 27.2575L248.219 26.9623C247.74 26.8342 247.436 26.6615 247.311 26.444C247.183 26.2242 247.184 25.8752 247.312 25.3995L248.084 22.5224C248.213 22.0441 248.387 21.7404 248.608 21.6139C248.826 21.4855 249.176 21.4862 249.655 21.6143L251.103 22.0013Z" fill="#012426"/>
<path d="M253.112 22.6476L254.745 23.1769L253.03 28.4427L251.397 27.9132L253.112 22.6476Z" fill="#012426"/>
<path d="M255.399 23.3765L259.246 24.8501L258.888 25.7794L257.766 25.3495L256.135 29.5891L254.532 28.9753L256.163 24.7356L255.041 24.3058L255.399 23.3765Z" fill="#012426"/>
<path fill-rule="evenodd" clip-rule="evenodd" d="M260.524 25.4045L257.089 29.9393L258.548 30.5876L259.303 29.4861L260.23 29.8979L259.92 31.1969L261.374 31.8431L262.453 26.2618L260.524 25.4045ZM259.866 28.655L260.884 27.188L260.47 28.9232L259.866 28.655Z" fill="#012426"/>
<path d="M264.117 27.1228L265.647 27.9005L263.745 31.6255L264.972 32.2495L264.355 33.4578L261.598 32.0558L264.117 27.1228Z" fill="#012426"/>
<path d="M271.661 31.3883C272.08 31.6494 272.319 31.9041 272.375 32.152C272.433 32.3962 272.393 32.6265 272.257 32.8429L271.634 33.8379L270.178 32.93L270.71 32.0806C270.744 32.0267 270.735 31.9845 270.683 31.9522L270.308 31.7182C270.256 31.6859 270.214 31.6964 270.18 31.7503L268.394 34.6033C268.362 34.6529 268.373 34.693 268.424 34.7254L268.8 34.9593C268.852 34.9917 268.892 34.9832 268.923 34.9336L269.46 34.0769L270.916 34.9848L270.288 35.9872C270.156 36.1993 269.967 36.3339 269.722 36.3894C269.474 36.4475 269.139 36.3448 268.721 36.0837L267.45 35.2912C267.029 35.0288 266.79 34.7742 266.736 34.5276C266.676 34.2821 266.778 33.9497 267.04 33.5319L268.622 31.006C268.886 30.5839 269.142 30.3443 269.389 30.2902C269.635 30.2308 269.969 30.3334 270.39 30.5958L271.661 31.3883Z" fill="#012426"/>
<path d="M276.684 34.8756L274.235 38.3662C273.952 38.7699 273.686 38.9943 273.438 39.037C273.188 39.0821 272.859 38.9621 272.455 38.6794L271.227 37.8215C270.82 37.5376 270.595 37.2709 270.554 37.0216C270.507 36.7736 270.627 36.4469 270.91 36.0434L273.36 32.5526L274.766 33.5353L272.212 37.1748C272.176 37.2267 272.183 37.2701 272.235 37.3065L272.595 37.5577C272.645 37.5927 272.687 37.5842 272.724 37.5323L275.278 33.8928L276.684 34.8756Z" fill="#012426"/>
<path fill-rule="evenodd" clip-rule="evenodd" d="M279.607 37.2604C279.985 37.5772 280.186 37.8625 280.208 38.116C280.229 38.3676 280.079 38.6836 279.76 39.063L279.656 39.1859C279.377 39.5176 279.147 39.7081 278.965 39.7584C278.788 39.8066 278.516 39.7226 278.152 39.5063C278.428 39.8282 278.556 40.082 278.538 40.2664C278.52 40.4544 278.449 40.6213 278.328 40.7661L277.576 41.6601C277.322 41.9614 277.159 42.2016 277.089 42.3799L275.774 41.2785C275.857 41.0852 276.031 40.8314 276.296 40.5169L277.052 39.6173C277.077 39.5876 277.079 39.5539 277.061 39.5158L276.627 39.1527L275.226 40.8197L273.91 39.7183L277.477 35.4771L279.607 37.2604ZM278.569 37.8139C278.61 37.7652 278.607 37.7222 278.56 37.683L278.151 37.3408L277.226 38.4407L277.635 38.783C277.682 38.8223 277.725 38.8176 277.763 38.7718L278.569 37.8139Z" fill="#012426"/>
<path fill-rule="evenodd" clip-rule="evenodd" d="M283.258 40.632C283.619 40.968 283.805 41.2636 283.813 41.5177C283.821 41.7701 283.654 42.0779 283.316 42.44L283.206 42.5573C282.91 42.8741 282.67 43.0523 282.486 43.093C282.306 43.1317 282.04 43.0338 281.687 42.7987C281.945 43.1347 282.06 43.3948 282.032 43.5779C282.005 43.7648 281.926 43.9277 281.796 44.0661L280.999 44.9195C280.73 45.2071 280.555 45.4384 280.475 45.6129L279.219 44.4445C279.312 44.2556 279.5 44.0112 279.78 43.7111L280.583 42.8521C280.609 42.8238 280.614 42.7902 280.597 42.7513L280.183 42.3661L278.696 43.9575L277.44 42.7891L281.224 38.7397L283.258 40.632ZM282.192 41.1304C282.235 41.084 282.235 41.0409 282.19 40.9994L281.8 40.6362L280.818 41.6863L281.209 42.0495C281.253 42.0911 281.296 42.0887 281.337 42.0449L282.192 41.1304Z" fill="#012426"/>
<path d="M284.811 42.1626L286.961 44.384L286.244 45.0755L285.287 44.0864L284.451 44.891L285.409 45.8801L284.702 46.5611L283.745 45.5721L282.73 46.5496L283.687 47.5386L282.97 48.2301L280.82 46.0086L284.811 42.1626Z" fill="#012426"/>
<path d="M286.052 51.7968L290.24 48.1643L289.114 46.8714L287.239 48.4973L288.56 46.2356L287.482 44.998L283.294 48.6305L284.42 49.9234L286.292 48.2999L284.974 50.5592L286.052 51.7968Z" fill="#012426"/>
<path d="M292.47 51.1431C292.76 51.5417 292.886 51.8673 292.845 52.1183C292.807 52.366 292.683 52.5648 292.477 52.7147L291.525 53.4044L290.516 52.0182L291.328 51.4294C291.379 51.3921 291.387 51.3498 291.351 51.3003L291.091 50.943C291.055 50.8937 291.012 50.8878 290.961 50.9253L288.233 52.9027C288.186 52.937 288.18 52.9779 288.216 53.0274L288.476 53.3847C288.512 53.434 288.553 53.4413 288.6 53.407L289.419 52.8132L290.429 54.1994L289.47 54.8939C289.268 55.0409 289.042 55.0953 288.794 55.0551C288.542 55.0163 288.271 54.7961 287.981 54.3975L287.1 53.1876C286.808 52.787 286.682 52.4616 286.724 52.2127C286.761 51.9628 286.981 51.6929 287.38 51.4032L289.795 49.6526C290.199 49.36 290.526 49.2336 290.776 49.2757C291.026 49.3127 291.297 49.5326 291.589 49.9332L292.47 51.1431Z" fill="#012426"/>
<path d="M291.656 55.5025L293.569 52.6939L294.455 54.0545L293.219 55.5149L295.058 54.981L295.943 56.3407L292.594 56.9426L290.571 58.2533L289.634 56.8132L291.656 55.5025Z" fill="#012426"/>
<path d="M295.267 63.832L295.491 64.31C295.518 64.3677 295.559 64.3836 295.617 64.3569L299.328 62.63L300.054 64.1827L295.852 66.1377C295.625 66.2433 295.392 66.2516 295.156 66.1639C294.916 66.0768 294.692 65.81 294.483 65.3624L294.035 64.4051L295.267 63.832Z" fill="#012426"/>
<path d="M302.161 69.2539C302.346 69.7106 302.389 70.0568 302.288 70.2906C302.191 70.5217 302.023 70.6848 301.786 70.7804L300.696 71.2199L300.053 69.6312L300.983 69.256C301.042 69.2322 301.06 69.193 301.037 69.1363L300.871 68.7269C300.848 68.6703 300.808 68.6544 300.749 68.6781L297.623 69.9383C297.569 69.9603 297.553 69.9986 297.576 70.0552L297.742 70.4647C297.765 70.5212 297.803 70.5382 297.857 70.5163L298.796 70.1379L299.439 71.7264L298.341 72.1692C298.109 72.2629 297.876 72.2611 297.646 72.1623C297.411 72.0637 297.201 71.7847 297.016 71.3279L296.454 69.9413C296.268 69.4821 296.225 69.136 296.327 68.9047C296.423 68.6711 296.701 68.4623 297.159 68.2777L299.927 67.1619C300.389 66.9755 300.738 66.9317 300.97 67.0329C301.203 67.1291 301.413 67.408 301.599 67.8672L302.161 69.2539Z" fill="#012426"/>
<path fill-rule="evenodd" clip-rule="evenodd" d="M303.765 73.836C303.926 74.3019 303.951 74.6499 303.839 74.8781C303.73 75.1037 303.438 75.2974 302.966 75.4595L300.144 76.4292C299.677 76.5897 299.33 76.6154 299.104 76.5047C298.875 76.394 298.68 76.1044 298.519 75.6386L298.031 74.2245C297.869 73.7562 297.844 73.4084 297.958 73.1826C298.066 72.9544 298.355 72.7604 298.822 72.6L301.645 71.6304C302.116 71.4683 302.466 71.4427 302.693 71.5558C302.921 71.6642 303.116 71.9537 303.278 72.422L303.765 73.836ZM302.597 73.7743C302.652 73.7553 302.67 73.7178 302.65 73.66L302.506 73.2425C302.486 73.1847 302.449 73.1658 302.394 73.1849L299.206 74.2802C299.145 74.3009 299.126 74.3391 299.146 74.3969L299.29 74.8144C299.31 74.8722 299.349 74.8903 299.409 74.8696L302.597 73.7743Z" fill="#012426"/>
<path d="M304.288 75.8228L304.761 77.4696L299.427 78.9958L298.954 77.3489L304.288 75.8228Z" fill="#012426"/>
<path d="M300.47 83.5869L305.854 82.2474L305.439 80.5852L303.028 81.1847L305.234 79.7677L304.837 78.1767L299.453 79.516L299.868 81.1785L302.275 80.5798L300.072 81.9958L300.47 83.5869Z" fill="#012426"/>
<path fill-rule="evenodd" clip-rule="evenodd" d="M301.313 91.0071C301.363 91.1563 301.471 91.3004 301.64 91.4392C301.975 91.7148 302.439 91.8266 303.03 91.775L305.283 91.5784C305.875 91.5268 306.312 91.3362 306.594 91.0067C306.736 90.8409 306.818 90.68 306.841 90.5244L306.567 87.4011L301.039 87.8835L301.313 91.0071ZM302.328 90.1165C302.267 90.1219 302.234 90.0947 302.229 90.034L302.183 89.5035L305.723 89.1944L305.769 89.7249C305.775 89.7858 305.747 89.818 305.687 89.8232L302.328 90.1165Z" fill="#012426"/>
<path d="M306.952 92.245L307.06 95.331L306.063 95.3659L306.015 93.9919L304.854 94.0322L304.903 95.4062L303.921 95.4404L303.873 94.0666L302.463 94.1156L302.511 95.4896L301.514 95.5243L301.406 92.4382L306.952 92.245Z" fill="#012426"/>
<path d="M306.982 98.8923C306.973 99.3848 306.878 99.7203 306.694 99.8964C306.514 100.071 306.295 100.156 306.04 100.151L304.864 100.131L304.894 98.4177L305.898 98.4352C305.961 98.4363 305.993 98.4072 305.994 98.3461L306.002 97.9045C306.003 97.8435 305.972 97.8132 305.908 97.8121L302.537 97.7533C302.479 97.7523 302.449 97.7816 302.448 97.8427L302.441 98.2841C302.44 98.3452 302.468 98.3755 302.526 98.3766L303.539 98.3942L303.509 100.107L302.324 100.087C302.074 100.082 301.861 99.9902 301.687 99.8092C301.509 99.6269 301.425 99.2883 301.434 98.7956L301.46 97.3003C301.469 96.8051 301.564 96.4697 301.748 96.2961C301.929 96.1189 302.267 96.0352 302.76 96.0438L305.745 96.0958C306.244 96.1044 306.581 96.1998 306.755 96.3834C306.933 96.5631 307.017 96.9018 307.008 97.3968L306.982 98.8923Z" fill="#012426"/>
<path d="M306.936 100.961L306.72 104.041L305.725 103.972L305.821 102.6L304.663 102.52L304.567 103.891L303.587 103.823L303.683 102.451L302.276 102.353L302.18 103.725L301.185 103.655L301.401 100.575L306.936 100.961Z" fill="#012426"/>
<path d="M300.591 108.321L306.098 108.995L306.307 107.295L303.842 106.993L306.41 106.459L306.61 104.831L301.103 104.156L300.894 105.857L303.355 106.159L300.791 106.693L300.591 108.321Z" fill="#012426"/>
<path d="M305.909 109.601L305.193 113.65L304.211 113.478L304.42 112.297L299.937 111.508L300.236 109.821L304.718 110.609L304.926 109.428L305.909 109.601Z" fill="#012426"/>
<path fill-rule="evenodd" clip-rule="evenodd" d="M304.214 117.146C304.086 117.622 303.912 117.924 303.691 118.051C303.472 118.176 303.121 118.174 302.642 118.046L302.486 118.004C302.067 117.892 301.797 117.765 301.674 117.621C301.555 117.481 301.517 117.2 301.559 116.779C301.383 117.165 301.207 117.388 301.032 117.449C300.854 117.513 300.672 117.519 300.489 117.47L299.36 117.169C298.979 117.067 298.692 117.021 298.5 117.033L298.945 115.378C299.155 115.371 299.46 115.421 299.857 115.528L300.994 115.832C301.031 115.842 301.063 115.83 301.09 115.797L301.236 115.251L299.13 114.688L299.574 113.033L304.934 114.466L304.214 117.146ZM303.273 116.441C303.334 116.457 303.372 116.437 303.388 116.378L303.526 115.863L302.136 115.492L301.998 116.006C301.982 116.065 302.004 116.102 302.062 116.117L303.273 116.441Z" fill="#012426"/>
<path fill-rule="evenodd" clip-rule="evenodd" d="M303.258 120.234L298.379 117.3L297.886 118.816L299.063 119.45L298.749 120.413L297.422 120.241L296.93 121.752L302.606 122.239L303.258 120.234ZM299.95 119.922L301.518 120.778L299.746 120.549L299.95 119.922Z" fill="#012426"/>
<path d="M301.883 123.967L301.268 125.566L297.357 124.068L296.863 125.352L295.594 124.866L296.703 121.983L301.883 123.967Z" fill="#012426"/>
<path d="M300.524 127.514L299.826 129.08L294.757 126.828L295.455 125.263L300.524 127.514Z" fill="#012426"/>
<path d="M299.508 129.718L298.291 129.1L297.578 130.495L294.604 127.126L292.864 130.532L294.075 131.148L294.72 129.886L297.753 133.154L299.508 129.718Z" fill="#012426"/>
<path d="M297.449 133.61L295.949 136.311L295.076 135.829L295.744 134.626L294.729 134.065L294.061 135.267L293.201 134.792L293.869 133.589L292.636 132.907L291.968 134.109L291.095 133.627L292.596 130.926L297.449 133.61Z" fill="#012426"/>
<path fill-rule="evenodd" clip-rule="evenodd" d="M289.139 136.639C289.088 136.788 289.088 136.968 289.139 137.18C289.24 137.601 289.543 137.97 290.047 138.283L291.965 139.479C292.468 139.793 292.933 139.904 293.356 139.81C293.57 139.762 293.732 139.683 293.844 139.573L295.509 136.914L290.804 133.98L289.139 136.639ZM290.486 136.537C290.434 136.505 290.425 136.464 290.457 136.412L290.74 135.96L293.754 137.839L293.471 138.291C293.438 138.343 293.397 138.352 293.345 138.32L290.486 136.537Z" fill="#012426"/>
<path fill-rule="evenodd" clip-rule="evenodd" d="M285.214 141.81C285.148 141.953 285.129 142.133 285.158 142.349C285.214 142.778 285.477 143.176 285.944 143.54L287.727 144.93C288.195 145.294 288.645 145.453 289.076 145.404C289.293 145.379 289.463 145.317 289.586 145.219L291.521 142.748L287.148 139.339L285.214 141.81ZM286.564 141.849C286.516 141.812 286.511 141.77 286.549 141.722L286.877 141.302L289.678 143.485L289.349 143.905C289.311 143.953 289.269 143.958 289.221 143.921L286.564 141.849Z" fill="#012426"/>
<path d="M288.555 146.476L287.452 147.788L283.201 144.229L284.305 142.917L288.555 146.476Z" fill="#012426"/>
<path d="M284.944 150.356C284.607 150.716 284.311 150.901 284.056 150.91C283.803 150.917 283.495 150.751 283.132 150.414L282.506 149.831L283.677 148.578L284.434 149.283C284.48 149.325 284.524 149.325 284.566 149.281L284.867 148.958C284.909 148.913 284.906 148.869 284.86 148.827L282.393 146.532C282.352 146.493 282.309 146.494 282.268 146.539L281.966 146.861C281.924 146.906 281.925 146.948 281.967 146.987L282.766 147.731L282.978 147.504L283.432 147.927L282.049 149.406L280.014 147.512L280.353 147.15L280.849 147.383C280.64 147.118 280.733 146.765 281.128 146.32L281.908 145.486C282.246 145.124 282.542 144.937 282.793 144.93C283.047 144.92 283.356 145.084 283.717 145.42L285.9 147.452C286.263 147.789 286.45 148.086 286.458 148.34C286.469 148.592 286.305 148.9 285.966 149.262L284.944 150.356Z" fill="#012426"/>
<path d="M283.491 151.809L282.256 152.999L278.401 149.016L279.636 147.826L283.491 151.809Z" fill="#012426"/>
<path d="M281.79 153.467L278.68 156.164L278.026 155.413L278.933 154.626L275.947 151.199L277.243 150.075L280.229 153.502L281.136 152.716L281.79 153.467Z" fill="#012426"/>
<path fill-rule="evenodd" clip-rule="evenodd" d="M277.635 156.964L275.145 151.852L273.903 152.855L274.544 154.026L273.756 154.663L272.737 153.798L271.499 154.797L275.993 158.291L277.635 156.964ZM275.031 154.904L275.879 156.475L274.517 155.319L275.031 154.904Z" fill="#012426"/>
<path d="M274.387 159.37L272.998 160.377L270.535 156.994L269.421 157.803L268.622 156.706L271.126 154.89L274.387 159.37Z" fill="#012426"/>
<path d="M267.051 164.036C266.623 164.282 266.286 164.373 266.04 164.307C265.797 164.243 265.612 164.099 265.484 163.879L264.896 162.863L266.383 162.006L266.885 162.873C266.917 162.928 266.958 162.94 267.011 162.91L267.394 162.689C267.447 162.658 267.458 162.617 267.426 162.562L265.74 159.648C265.711 159.597 265.67 159.587 265.617 159.618L265.234 159.839C265.181 159.869 265.17 159.909 265.199 159.96L265.705 160.834L264.218 161.691L263.626 160.668C263.501 160.451 263.47 160.221 263.536 159.98C263.601 159.734 263.849 159.488 264.276 159.241L265.575 158.493C266.004 158.246 266.342 158.155 266.585 158.223C266.831 158.286 267.077 158.532 267.323 158.958L268.816 161.538C269.065 161.969 269.157 162.307 269.089 162.55C269.026 162.794 268.779 163.041 268.349 163.288L267.051 164.036Z" fill="#012426"/>
<path d="M261.668 166.801L259.663 163.038C259.431 162.603 259.351 162.265 259.425 162.026C259.499 161.782 259.755 161.545 260.191 161.314L261.515 160.611C261.953 160.379 262.293 160.3 262.534 160.376C262.777 160.448 263.015 160.702 263.246 161.137L265.251 164.9L263.735 165.704L261.645 161.781C261.615 161.725 261.573 161.712 261.517 161.742L261.129 161.948C261.075 161.976 261.064 162.018 261.093 162.074L263.184 165.997L261.668 166.801Z" fill="#012426"/>
<path fill-rule="evenodd" clip-rule="evenodd" d="M258.102 168.25C257.644 168.435 257.297 168.478 257.063 168.378C256.83 168.278 256.621 167.997 256.435 167.538L256.375 167.389C256.212 166.988 256.152 166.696 256.193 166.511C256.233 166.333 256.435 166.133 256.798 165.913C256.383 166.005 256.098 165.999 255.944 165.897C255.786 165.792 255.671 165.652 255.6 165.477L255.162 164.395C255.014 164.03 254.878 163.774 254.754 163.628L256.346 162.986C256.478 163.15 256.621 163.423 256.775 163.804L257.216 164.893C257.23 164.928 257.259 164.946 257.301 164.948L257.826 164.736L257.009 162.719L258.601 162.077L260.68 167.211L258.102 168.25ZM258.1 167.075C258.123 167.134 258.163 167.152 258.219 167.129L258.714 166.929L258.175 165.598L257.68 165.798C257.624 165.82 257.608 165.861 257.63 165.916L258.1 167.075Z" fill="#012426"/>
<path fill-rule="evenodd" clip-rule="evenodd" d="M253.457 169.92C252.99 170.08 252.641 170.105 252.413 169.993C252.186 169.882 251.991 169.59 251.83 169.122L251.778 168.97C251.636 168.561 251.591 168.266 251.642 168.084C251.692 167.908 251.904 167.719 252.278 167.518C251.859 167.589 251.575 167.568 251.426 167.457C251.273 167.345 251.166 167.199 251.104 167.02L250.724 165.917C250.595 165.545 250.473 165.282 250.356 165.13L251.979 164.572C252.103 164.743 252.231 165.022 252.365 165.41L252.748 166.521C252.761 166.557 252.789 166.577 252.831 166.581L253.366 166.397L252.656 164.339L254.28 163.782L256.086 169.017L253.457 169.92ZM253.516 168.747C253.537 168.807 253.575 168.826 253.633 168.807L254.138 168.633L253.669 167.276L253.165 167.449C253.107 167.469 253.089 167.508 253.108 167.564L253.516 168.747Z" fill="#012426"/>
<path d="M251.338 170.584L248.363 171.435L248.089 170.478L249.413 170.099L249.093 168.986L247.768 169.365L247.498 168.422L248.822 168.044L248.433 166.691L247.109 167.07L246.834 166.113L249.809 165.262L251.338 170.584Z" fill="#012426"/>
<path d="M242.207 167.088L243.456 172.483L245.128 172.098L244.57 169.683L245.951 171.908L247.553 171.539L246.304 166.145L244.631 166.53L245.189 168.941L243.809 166.719L242.207 167.088Z" fill="#012426"/>
<path d="M239.758 173.037C239.269 173.106 238.922 173.064 238.719 172.91C238.517 172.76 238.399 172.558 238.364 172.305L238.2 171.143L239.901 170.905L240.04 171.897C240.049 171.959 240.083 171.986 240.144 171.978L240.582 171.916C240.643 171.908 240.668 171.873 240.659 171.81L240.19 168.478C240.182 168.421 240.148 168.396 240.087 168.405L239.649 168.466C239.589 168.475 239.563 168.507 239.571 168.565L239.712 169.565L238.012 169.804L237.847 168.633C237.812 168.386 237.87 168.162 238.022 167.962C238.174 167.758 238.497 167.623 238.985 167.554L240.47 167.346C240.961 167.277 241.308 167.319 241.509 167.473C241.712 167.623 241.848 167.943 241.917 168.431L242.332 171.38C242.402 171.873 242.36 172.221 242.206 172.421C242.056 172.624 241.733 172.76 241.242 172.829L239.758 173.037Z" fill="#012426"/>
<path d="M236.295 170.245L237.882 173.248L236.262 173.39L235.55 171.616L235.159 173.486L233.541 173.627L234.58 170.394L234.37 167.997L236.084 167.848L236.295 170.245Z" fill="#012426"/>
<path d="M295.039 58.6597C295.507 58.6597 295.886 59.0384 295.886 59.5054C295.886 59.9725 295.507 60.3512 295.039 60.3512C294.571 60.3512 294.191 59.9725 294.191 59.5054C294.191 59.0384 294.571 58.6597 295.039 58.6597Z" fill="#012426"/>
<path d="M304.268 85.2638C304.268 84.7968 303.888 84.418 303.42 84.418C302.952 84.418 302.573 84.7968 302.573 85.2638C302.573 85.7308 302.952 86.1096 303.42 86.1096C303.888 86.1096 304.268 85.7308 304.268 85.2638Z" fill="#012426"/>
<path d="M165.063 56.8554C165.531 56.8554 165.911 57.2342 165.911 57.7012C165.911 58.1682 165.531 58.547 165.063 58.547C164.595 58.547 164.216 58.1682 164.216 57.7012C164.216 57.2342 164.595 56.8554 165.063 56.8554Z" fill="#012426"/>
<path d="M185.054 36.9362C185.054 36.4692 184.675 36.0904 184.207 36.0904C183.739 36.0904 183.359 36.4692 183.359 36.9362C183.359 37.4032 183.739 37.782 184.207 37.782C184.675 37.782 185.054 37.4032 185.054 36.9362Z" fill="#012426"/>
<path d="M202.664 165.143C203.132 165.143 203.511 165.522 203.511 165.989C203.511 166.456 203.132 166.835 202.664 166.835C202.196 166.835 201.816 166.456 201.816 165.989C201.816 165.522 202.196 165.143 202.664 165.143Z" fill="#012426"/>
<path d="M231.481 170.914C231.481 170.447 231.101 170.068 230.633 170.068C230.165 170.068 229.786 170.447 229.786 170.914C229.786 171.381 230.165 171.759 230.633 171.759C231.101 171.759 231.481 171.381 231.481 170.914Z" fill="#012426"/>
<defs>
<radialGradient id="paint0_radial_894_1661" cx="0" cy="0" r="1" gradientUnits="userSpaceOnUse" gradientTransform="translate(224.109 88.4006) rotate(-162.134) scale(214.736 369.821)">
<stop stop-color="#90C626"/>
<stop offset="1" stop-color="#20934A"/>
</radialGradient>
<linearGradient id="paint1_linear_894_1661" x1="303.619" y1="164.413" x2="131.871" y2="134.722" gradientUnits="userSpaceOnUse">
<stop stop-color="#90C626"/>
<stop offset="1" stop-color="#20934A"/>
</linearGradient>
</defs>
</svg>
